/* XPM */
static char *_637567477902[] = {
/* columns rows colors chars-per-pixel */
"29 30 21 1 ",
"  c #106B00",
". c gray39",
"X c #A52929",
"o c #C63131",
"O c #E73939",
"+ c #9C7318",
"@ c #FF4242",
"# c #FF7B7B",
"$ c #4AAD00",
"% c #63BD00",
"& c #FFBD00",
"* c #B5F700",
"= c #FFD600",
"- c yellow",
"; c #94949C",
": c #DECEB5",
"> c #CECECE",
", c #E7C6C6",
"< c #EFEFEF",
"1 c white",
"2 c None",
/* pixels */
"2222222222.........2222222222",
"22222222..;><<<<<>;..22222222",
"222222..><&&11111&&<>..222222",
"22222.><11==11111==11<>.22222",
"2222.>1111--11111--1111>.2222",
"222.>&=111XX,111,XX111=&>.222",
"22.>1==- X#@XXXXX@#X -==1>.22",
"22.<11- %X#@@XXX@@#X% -11<.22",
"2.>111: *XOoX@#@XoOX* :111>.2",
"2.<111X@@oXXoXOXoXXo@@X111<.2",
".>111:X@@XOoOXXXOoOX@@X:111>.",
".=&=- %*X@@@XOOOX@@@X*% -=&>.",
".<&=- **%X@X@@@@@X@X%** -=&<.",
".<111 ***%X%@@@@@%X%*** 111<.",
".<111 %%%%%%ooooo%%%%%% 111<.",
".>111 $%%%%%ooooo%%%%%$ 111>.",
".>11-: %%%%%ooooo%%%%% :-11>.",
"2.<==- %%%%%ooooo%%%%% -==<.2",
"2.>&=1 $$$$$+ooo+$$$$$ 1=&>.2",
"22.<11: $$$$$ooo$$$$$ :11<.22",
"22.>111 $$$$$ooo$$$$$ 111>.22",
"222.>11:     XXX     :11>.222",
"2222.><111111111111111<>.2222",
"22222.><1111111111111<>.22222",
"222222..><111111111<>..222222",
"22222222..;>11111>;..22222222",
"22222222222.;111;.22222222222",
"222222222222.>1>.222222222222",
"2222222222222.>.2222222222222",
"22222222222222.22222222222222"
};
