/* XPM */
static char *cb59fb894edc4d51ec356e7cdd4fbd89vuz1B1IwNoZZvHgi[] = {
/* columns rows colors chars-per-pixel */
"31 30 18 1 ",
"  c None",
". c #106B00",
"X c gray39",
"o c #A52929",
"O c #C63131",
"+ c #E73939",
"@ c #9C7318",
"# c #FF4242",
"$ c #FF7B7B",
"% c #4AAD00",
"& c #63BD00",
"* c #B5F700",
"= c #94949C",
"- c #DECEB5",
"; c #CECECE",
": c #E7C6C6",
"> c #EFEFEF",
", c white",
/* pixels */
"           XXXXXXXXX           ",
"         XX=;>>>>>;=XX         ",
"       XX;>,,,,,,,,,>;XX       ",
"      X;>,,,,,,,,,,,,,>;X      ",
"     X;,,,,,,,,,,,,,,,,,;X     ",
"    X;,,,,,,,,,,,,,,,,,,,;X    ",
"   X;,,,,,,,,,,,,,,,,,,,,,;X   ",
"   X>,,,,,,oo:,,,:oo,,,,,,>X   ",
"  X;,,,,..o$#ooooo#$o..,,,,;X  ",
"  X>,,,.&&o$##ooo##$o&&.,,,>X  ",
" X;,,,-.**o+Oo#$#oO+o**.-,,,;X ",
" X;,,,o##+oooOo+oOooo+##o,,,;X ",
" X>,,-o##o++#+ooo+#++o##o-,,>X ",
" X>,,.&**o##+o+++o+##o**&.,,>X ",
" X>,,.***&ooo#####ooo&***.,,>X ",
" X;,,.******&#####&******.,,;X ",
" X;,,-.&&&&&&OOOOO&&&&&&.-,,;X ",
"  X>,,.%&&&&&OOOOO&&&&&%.,,>X  ",
"  X;,,-.%%%%%@OOO@%%%%%.-,,;X  ",
"   X>,,.%%%%%%OOO%%%%%%.,,>X   ",
"   X;,,-.%%%%%OOO%%%%%.-,,;X   ",
"    X;,,-.....ooo.....-,,;X    ",
"     X;>,,,,,,,,,,,,,,,>;X     ",
"      X;>,,,,,,,,,,,,,>;X      ",
"       XX;>,,,,,,,,,>;XX       ",
"         XX=;,,,,,;=XX         ",
"            X=,,,=X            ",
"             X;,;X             ",
"              X;X              ",
"               X               "
};
