/* XPM */
static char *_25ada3ca0894848c56cc88bdff7c17bNkGc9htB44nxVADM[] = {
/* columns rows colors chars-per-pixel */
"32 33 14 1 ",
"  c None",
". c #2E1E22",
"X c #3A2C2E",
"o c #7A0000",
"O c #4A4144",
"+ c #605458",
"@ c #7A7072",
"# c #AB0000",
"$ c #CC0000",
"% c #E30000",
"& c #AAAAAD",
"* c #CACACC",
"= c gray91",
"- c white",
/* pixels */
"                                ",
"               &&&              ",
"              &---&             ",
"             &*---*&            ",
"              &o#o&             ",
"             oo#$#oo            ",
"            o#%$%$%#o           ",
"           o#%$%$%$%#o          ",
"          o#%$%$%$%$%#o         ",
"         o##$%$%$%$%$##o        ",
"         o#$%$%$%$%$%$#o        ",
"        o##%$#######$%##o       ",
"        o####ooooooo####o       ",
"        o#oo**=====**oo#o       ",
"        oo**..-----..**oo       ",
"         &*=.@-----@.=*&        ",
"         &*=..-----..=*&        ",
"          *=---#$#---=*         ",
"      ooo &*=--o#o-==*& ooo     ",
"     o$%$o&&**=====**&&o$%$o    ",
"     o%$%$*oo&&&&&&&oo*$%$%o    ",
"      o%$-**o#%$%o##o**-$%o     ",
"       *-+==*o#%$o$%#==+-*      ",
"        &X+==**##o%$#=+X*       ",
"        &*=----+@+$%#-=*&       ",
"        &*==---O+O%$#==*&       ",
"        &**==-----$%#=**&       ",
"         &**===+@+##=**&        ",
"          &****O+O****&         ",
"           &&*******&&          ",
"             &&&&&&&            ",
"                                ",
"                                "
};
