/* XPM */
static char *_637568626864[] = {
/* columns rows colors chars-per-pixel */
"32 32 26 1 ",
"  c #2E1E22",
". c #7A0000",
"X c #534721",
"o c #AB0000",
"O c #E30000",
"+ c #916600",
"@ c #8B5E4A",
"# c #9D704C",
"$ c #9D725D",
"% c #C79D00",
"& c #E3B700",
"* c #FFD300",
"= c #FFFC00",
"- c #D7906E",
"; c #003DD9",
": c #0086FF",
"> c #928A8C",
", c #AAAAAD",
"< c #EEBE93",
"1 c #FFE1AF",
"2 c #CACACC",
"3 c #C3D5EF",
"4 c gray91",
"5 c #E6F7FF",
"6 c white",
"7 c None",
/* pixels */
"777777777777.......7777777777777",
"7777777777..oOOOOOo..77777777777",
"777777777.ooOOOOOOOoo.7777777777",
"77777777.ooOOOOOOOOOoo.777777777",
"7777777.ooOOOOOOOOOOOoo.77777777",
"777777.ooOOOOOOOOOOOOOoo.7777777",
"777777.oOo22222222222oOo.7777777",
"77777.oo224666666666422oo.777777",
"77777.,24466666666666442,.777777",
"77777,2442222222222222442,777777",
"7777,22,,%&&*=*&*=*&&%,,22,77777",
"7777,2,%%&*%***%***%*&%%,2,77777",
"7777,,%%&-XXX<<<<<XXX-&%%,,77777",
"7777+%%&*X3 2111112 3X*&%%+77777",
"7777+%+**X5 >11111> 5X**+%+77777",
"77++.O+*=<6;;11111;;6<=*+O.++777",
"7+%&*o+*=-<::11111::<-=*+o*&%+77",
"77+**&+&*X-<1111111<-X*&+&**+777",
"7+&%&%+%*.X#-<<<<<-#X.*%+%&%&+77",
"7+%+%+++&o2XXXXXXXXX2o&+++%+%+77",
"77+7+7.o+o24664246642o+o.7+7+777",
"77777.oOOoo246646642ooOOo.777777",
"7777,44Oo.oo222o222oo.oO44,77777",
"7777,466,.ooooX*Xoooo.,664,77777",
"7777X144.oooOOOoOOOooo.441X77777",
"7777X1<X.ooOOOX*XOOOoo.X<1X77777",
"77777XX7,2oOOOOoOOOOo2,7XX777777",
"77777777,246ooX*Xoo642,777777777",
"777777777,24666666642,7777777777",
"7777777777X@2222222@X77777777777",
"7777777777X$$@XXX@$$X77777777777",
"77777777777XXX777XXX777777777777"
};
