/* XPM */
static char *_637567494015[] = {
/* columns rows colors chars-per-pixel */
"32 32 6 1 ",
"  c #181425",
". c #193C3E",
"X c #3E8948",
"o c #499B49",
"O c #63C74D",
"+ c None",
/* pixels */
"+++++++++++++++  +++++++++++++++",
"++++++++++++++ OO ++++++++++++++",
"++++++++++++++ OO ++++++++++++++",
"++++++++++++++ OO ++++++++++++++",
"+++++++++++++ oOOO +++++++++++++",
"+++++++++++++ oOOO +++++++++++++",
"+++++++++++++ ooOO +++++++++++++",
"++++++++++++ ooooOO ++++++++++++",
"+++++++++++  oooOOO  +++++++++++",
"++++++++++ ooooOOOOOO ++++++++++",
"++++++++++ oooOOOOOOO ++++++++++",
"+++++++++++ ..oOOOoo +++++++++++",
"+++++++++++ X..XXXOO +++++++++++",
"+++++++++++ XXXooOOO +++++++++++",
"+++++++++++ XXoooOOO +++++++++++",
"+++++++++  XXXoXoOOOO  +++++++++",
"++++++++ XXXXXXXoOoOOOO ++++++++",
"++++++++ .XXoooooooOOOO ++++++++",
"+++++++++ .....oo.oooo +++++++++",
"++++++++++ ..XX..XoOO ++++++++++",
"+++++++++ ..XXXXXooOOO +++++++++",
"+++++++++ .XXXXooooOOO +++++++++",
"++++++++ .XXXXoooooOOOO ++++++++",
"+++++++ .XXXXXoooooooOoO +++++++",
"+++++++ .XooXoooooooOOOO +++++++",
"++++++ .XXXooooooXooOOOOO ++++++",
"+++++ ..XXXXXXXoXoooooOOOO +++++",
"+++++ ...XX...XXXooooooOOO +++++",
"++++++  ...XX...ooXXXXoo  ++++++",
"+++++++ ...XXXX..XXooooO +++++++",
"+++++++ ..XXXXXXXXoooooO +++++++",
"++++++ .XXXXXXoXXooooooOO ++++++"
};
